<svg xmlns="http://www.w3.org/2000/svg" viewBox="0 0 64 64" role="img" aria-labelledby="title desc">
  <title id="title">Salvation Through Jesus Logo</title>
  <desc id="desc">A simple beacon cross in gold on a navy background.</desc>
  <defs>
    <radialGradient id="glow" cx="50%" cy="35%" r="70%">
      <stop offset="0%" stop-color="#D6B76F" stop-opacity="0.9" />
      <stop offset="60%" stop-color="#D6B76F" stop-opacity="0.35" />
      <stop offset="100%" stop-color="#0B1526" stop-opacity="0" />
    </radialGradient>
  </defs>
  <rect width="64" height="64" rx="16" fill="#0E1B2E" />
  <circle cx="32" cy="28" r="26" fill="url(#glow)" />
  <path fill="#D6B76F" d="M29 12c0-1.1.9-2 2-2h2c1.1 0 2 .9 2 2v14h12c1.1 0 2 .9 2 2v2c0 1.1-.9 2-2 2H35v18c0 1.1-.9 2-2 2h-2c-1.1 0-2-.9-2-2V32H17c-1.1 0-2-.9-2-2v-2c0-1.1.9-2 2-2h12V12z" />
  <path fill="#C6A45B" opacity="0.65" d="M31 12c0-1.1.9-2 2-2h1v48h-1c-1.1 0-2-.9-2-2V12z" />
</svg>
